<svg width="23" height="23" viewBox="0 0 23 23" fill="none" xmlns="http://www.w3.org/2000/svg">
<path d="M8.76814 23C7.09391 23 5.5149 22.4659 4.20184 21.4551C3.95656 21.2665 3.72072 21.0603 3.50061 20.8429C1.96787 19.3281 1.19656 17.3106 1.32908 15.162C1.42926 13.5381 2.08332 11.9726 3.17178 10.7538C4.61332 9.1398 6.60066 8.2508 8.76859 8.2508C9.141 8.2508 9.51699 8.27865 9.88715 8.33346L10.4621 8.41881V13.5215L9.57674 13.229C9.31889 13.1437 9.0507 13.1006 8.77937 13.1006C8.09387 13.1006 7.45193 13.3692 6.97172 13.8566C6.49375 14.3418 6.23635 14.9832 6.24623 15.6638C6.25926 16.5411 6.7215 17.3363 7.48248 17.7918C7.83287 18.0011 8.23178 18.1237 8.63697 18.1462C8.95682 18.1637 9.27262 18.1219 9.57629 18.0218C10.6144 17.679 11.3121 16.7159 11.3121 15.6256L11.3166 10.3338V0H16.1933L16.1991 0.667539C16.2018 0.969863 16.2328 1.27219 16.2912 1.56508C16.5203 2.71688 17.1663 3.74334 18.1101 4.4549C18.9479 5.08695 19.9478 5.42072 21.0008 5.42072C21.0255 5.42072 21.0255 5.42072 21.2506 5.43645L21.8772 5.48047V9.61328V10.2871L21.6526 10.2867H21.2048C21.2012 10.2867 21.1976 10.2867 21.1935 10.2867H20.9784C20.9775 10.2867 20.9761 10.2867 20.9748 10.2867C19.6761 10.2867 18.4591 10.0391 17.253 9.53018C16.8936 9.37834 16.5437 9.20494 16.2059 9.01133L16.2211 15.6512C16.213 17.6152 15.4368 19.4575 14.0357 20.8424C12.8987 21.9659 11.4639 22.6838 9.88625 22.9173C9.51834 22.9721 9.14234 23 8.76814 23ZM8.76814 9.59846C6.98969 9.59846 5.35902 10.3275 4.17668 11.6514C3.28902 12.6455 2.75535 13.9217 2.67359 15.2447C2.56578 16.9989 3.19559 18.6466 4.44756 19.8838C4.62859 20.0626 4.82221 20.2319 5.02346 20.3869C6.09889 21.2148 7.39398 21.6523 8.76814 21.6523C9.07631 21.6523 9.38582 21.6294 9.68904 21.5845C10.9814 21.3931 12.1571 20.8051 13.0887 19.8842C14.2333 18.7531 14.8672 17.2496 14.8739 15.6503L14.8528 6.37891L15.9413 7.2185C16.5032 7.65199 17.1214 8.01227 17.7777 8.28943C18.6748 8.66813 19.579 8.87836 20.5291 8.92822V6.75176C19.3549 6.66371 18.2458 6.24639 17.2984 5.53168C16.09 4.62066 15.2629 3.30535 14.9692 1.82877C14.9377 1.6702 14.9121 1.50982 14.8932 1.34811H12.6638V10.3343L12.6593 15.6261C12.6593 17.2985 11.5901 18.7755 9.99855 19.3011C9.53451 19.4543 9.0516 19.5181 8.56285 19.4916C7.94023 19.4575 7.3275 19.2692 6.79023 18.948C5.62541 18.2513 4.91789 17.0308 4.89812 15.6836C4.88285 14.6396 5.27771 13.6549 6.01084 12.9105C6.74621 12.1639 7.7291 11.7529 8.77848 11.7529C8.89078 11.7529 9.00219 11.7579 9.11359 11.7673V9.60789C8.99859 9.6016 8.88314 9.59846 8.76814 9.59846Z" fill="white"/>
</svg>
