<svg width="13" height="13" viewBox="0 0 13 13" fill="none" xmlns="http://www.w3.org/2000/svg">
<g clip-path="url(#clip0_2005_5474)">
<path d="M10.8316 5.875C10.8316 9.375 6.33161 12.375 6.33161 12.375C6.33161 12.375 1.83161 9.375 1.83161 5.875C1.83161 4.68153 2.30571 3.53693 3.14963 2.69302C3.99354 1.84911 5.13813 1.375 6.33161 1.375C7.52508 1.375 8.66967 1.84911 9.51359 2.69302C10.3575 3.53693 10.8316 4.68153 10.8316 5.875Z" stroke="#6C6C6C" stroke-linecap="round" stroke-linejoin="round"/>
<path d="M6.33161 7.375C7.16003 7.375 7.83161 6.70343 7.83161 5.875C7.83161 5.04657 7.16003 4.375 6.33161 4.375C5.50318 4.375 4.83161 5.04657 4.83161 5.875C4.83161 6.70343 5.50318 7.375 6.33161 7.375Z" stroke="#6C6C6C" stroke-linecap="round" stroke-linejoin="round"/>
</g>
<defs>
<clipPath id="clip0_2005_5474">
<rect width="12" height="12" fill="white" transform="translate(0.331606 0.875)"/>
</clipPath>
</defs>
</svg>
